<?xml version="1.0" encoding="UTF-8"?>
<svg id="Layer_2" xmlns="http://www.w3.org/2000/svg" viewBox="0 0 23.38 35.63">
  <defs>
    <style>
      .cls-1 {
        fill: #4361ee;
      }
    </style>
  </defs>
  <g id="Layer_1-2" data-name="Layer_1">
    <path class="cls-1" d="M13.5,35.63c.06-.55.13-1.08.19-1.59.06-.51.13-1.03.19-1.54l.29-2.7c.03-.45.06-.87.1-1.25.03-.39.06-.74.1-1.06h-4.19l-1.93,6.94c-.71.1-1.54.2-2.51.31-.96.11-1.86.22-2.7.31-.51.06-1.02.13-1.52.19-.5.06-1,.13-1.52.19l3.81-12.63c.45-1.51.96-3.23,1.54-5.16.58-1.93,1.16-3.91,1.76-5.93.59-2.02,1.16-3.93,1.69-5.71.53-1.78.96-3.29,1.28-4.51,2.19-.16,4.41-.35,6.68-.58,2.27-.22,4.48-.53,6.63-.92-.16,1.8-.31,3.83-.46,6.1-.15,2.27-.27,4.6-.39,7.02-.11,2.41-.23,4.79-.36,7.14-.06,2.22-.14,4.51-.24,6.87-.1,2.36-.19,4.78-.29,7.26-.48.06-.96.13-1.45.19-.48.06-.96.13-1.45.19-.8.13-1.69.27-2.65.43-.96.16-1.83.31-2.6.43ZM11.33,22.66c.19,0,.55-.02,1.08-.05.53-.03,1.04-.06,1.52-.1.48-.03.77-.05.87-.05,0-.42.06-1.27.19-2.56.13-1.29.26-2.64.39-4.05.06-.84.14-1.69.22-2.58.08-.88.17-1.79.27-2.72l.29-4.19-.72.05-1.11,4.15-2.99,12.1Z"/>
  </g>
</svg>
